<svg width="160mm" height="160mm" version="1.1" viewBox="0 0 160 160" xml:space="preserve" xmlns="http://www.w3.org/2000/svg"><g stroke="#000"><path d="m71.456 6.9438c-1.6968-1.1e-4 -3.0723 1.3754-3.0722 3.0722 5e-5 0.81363 0.32287 1.594 0.89762 2.1699v13.554l-31.794-0.00155c-0.053963 0-0.10636 0.006217-0.1602 0.006718v-13.557c0.57209-0.57322 0.89469-1.3492 0.89762-2.159 1.1e-4 -1.6968-1.3759-3.0723-3.0727-3.0722-1.6968-1.11e-4 -3.0728 1.3754-3.0727 3.0722 5e-5 0.81363 0.32287 1.594 0.89762 2.1699v14.156c-5.6155 1.5454-10.042 5.898-11.682 11.475h-12.416c-0.57321-0.57209-1.3492-0.89469-2.159-0.89762-1.6968-1.1e-4 -3.0723 1.3754-3.0722 3.0722-1.105e-4 1.6968 1.3754 3.0723 3.0722 3.0722 0.81363-4.8e-5 1.594-0.32287 2.1699-0.89762h11.731c-0.0039 0.15084-0.022737 0.29776-0.022737 0.44958v7.3003h-11.719c-0.57321-0.57209-1.3492-0.89469-2.159-0.89762-1.6968-1.1e-4 -3.0723 1.3754-3.0722 3.0722-1.105e-4 1.6968 1.3754 3.0728 3.0722 3.0727 0.81363-4.8e-5 1.594-0.32287 2.1699-0.89762h11.708v7.7499h-11.719c-0.57321-0.57209-1.3487-0.89469-2.1585-0.89762-1.6968-1.1e-4 -3.0728 1.3754-3.0727 3.0722-1.105e-4 1.6968 1.3759 3.0723 3.0727 3.0722 0.81363-4.8e-5 1.594-0.32287 2.1699-0.89762h11.708v7.7499h-11.719c-0.57321-0.57209-1.3492-0.89469-2.159-0.89762-1.6968-1.1e-4 -3.0723 1.3754-3.0722 3.0722-1.105e-4 1.6968 1.3754 3.0723 3.0722 3.0722 0.81363-4.8e-5 1.594-0.32287 2.1699-0.89762h11.708v7.7499h-11.719c-0.57321-0.57209-1.3487-0.89469-2.1585-0.89762-1.6968-1.1e-4 -3.0728 1.3754-3.0727 3.0722-1.105e-4 1.6968 1.3759 3.0723 3.0727 3.0722 0.81363-4.8e-5 1.594-0.32287 2.1699-0.89762h11.708v7.7499h-11.719c-0.57321-0.57209-1.3492-0.89469-2.159-0.89762-1.6968-1.1e-4 -3.0723 1.3754-3.0722 3.0722-1.105e-4 1.6968 1.3754 3.0723 3.0722 3.0722 0.81363-5e-5 1.594-0.32287 2.1699-0.89762h11.708v7.7494h-11.719c-0.57321-0.57209-1.3492-0.89469-2.159-0.89762-1.6968-1.1e-4 -3.0723 1.3754-3.0722 3.0722-1.105e-4 1.6968 1.3754 3.0728 3.0722 3.0727 0.81363-5e-5 1.594-0.32287 2.1699-0.89762h11.708v7.3003c0 0.1517 0.018798 0.29835 0.022738 0.44907h-11.742c-0.57322-0.57209-1.3492-0.89469-2.159-0.89762-1.6968-1.1e-4 -3.0723 1.3759-3.0722 3.0727-1.105e-4 1.6968 1.3754 3.0723 3.0722 3.0722 0.81363-5e-5 1.594-0.32287 2.1699-0.89762h12.405c1.6399 5.5765 6.0655 9.9236 11.683 11.468v15.152c-0.57209 0.57322-0.89469 1.3492-0.89762 2.159-1.1e-4 1.6968 1.3754 3.0723 3.0722 3.0722 1.6968 1.1e-4 3.0723-1.3754 3.0722-3.0722-4.8e-5 -0.81362-0.32287-1.594-0.89762-2.1699v-14.527c0.05398 5e-4 0.10609 0.00827 0.1602 0.00827h7.5897v14.529c-0.57209 0.57322-0.89469 1.3492-0.89762 2.159-1.1e-4 1.6968 1.3754 3.0723 3.0722 3.0722 1.6968 1.1e-4 3.0723-1.3754 3.0722-3.0722-4.8e-5 -0.81363-0.32287-1.594-0.89762-2.1699v-14.518h7.7494v14.529c-0.57209 0.57322-0.89469 1.3492-0.89762 2.159-1.1e-4 1.6968 1.3759 3.0723 3.0727 3.0722 1.6968 1.1e-4 3.0723-1.3754 3.0722-3.0722-4.8e-5 -0.81363-0.32287-1.594-0.89762-2.1699v-14.518h7.7499v14.529c-0.57209 0.57322-0.89469 1.3492-0.89762 2.159-1.1e-4 1.6968 1.3754 3.0723 3.0722 3.0722 1.6968 1.1e-4 3.0723-1.3754 3.0722-3.0722-4.8e-5 -0.81363-0.32287-1.594-0.89762-2.1699v-14.518h7.7499v14.529c-0.57209 0.57322-0.89469 1.3492-0.89762 2.159-1.1e-4 1.6968 1.3754 3.0723 3.0722 3.0722 1.6968 1.1e-4 3.0723-1.3754 3.0722-3.0722-4.8e-5 -0.81363-0.32287-1.594-0.89762-2.1699v-14.518h7.7499v14.529c-0.57209 0.57322-0.89469 1.3492-0.89762 2.159-1.1e-4 1.6968 1.3754 3.0723 3.0722 3.0722 1.6968 1.1e-4 3.0723-1.3754 3.0722-3.0722-4.8e-5 -0.81363-0.32287-1.594-0.89762-2.1699v-14.518h7.7499v14.529c-0.57209 0.57322-0.89469 1.3492-0.89762 2.159-1.1e-4 1.6968 1.3754 3.0723 3.0722 3.0722 1.6968 1.1e-4 3.0723-1.3754 3.0722-3.0722-5e-5 -0.81363-0.32287-1.594-0.89762-2.1699v-14.518h7.5892c0.0543 0 0.10656-0.00775 0.16071-0.00775v14.538c-0.57209 0.57322-0.89469 1.3492-0.89762 2.159-1.1e-4 1.6968 1.3754 3.0723 3.0722 3.0722 1.6968 1.1e-4 3.0723-1.3754 3.0722-3.0722-5e-5 -0.81362-0.32287-1.594-0.89762-2.1699v-15.141c5.6174-1.5445 10.043-5.8916 11.682-11.468h12.992c0.57322 0.57209 1.3492 0.89469 2.159 0.89762 1.6968 1.1e-4 3.0723-1.3754 3.0722-3.0722 1.1e-4 -1.6968-1.3754-3.0723-3.0722-3.0722-0.81363 5e-5 -1.5945 0.32287-2.1704 0.89762h-12.307c4e-3 -0.15072 0.02274-0.29737 0.02274-0.44907v-7.3008h12.295c0.57321 0.57209 1.3492 0.89469 2.159 0.89762 1.6968 1.1e-4 3.0723-1.3754 3.0722-3.0722 1.1e-4 -1.6968-1.3754-3.0723-3.0722-3.0722-0.81363 5e-5 -1.594 0.32287-2.1699 0.89762h-12.284v-7.7494h12.295c0.57321 0.57209 1.3492 0.8947 2.159 0.89762 1.6968 1.1e-4 3.0723-1.3759 3.0722-3.0727 1.1e-4 -1.6968-1.3754-3.0723-3.0722-3.0722-0.81363 4.8e-5 -1.594 0.32287-2.1699 0.89762h-12.284v-7.7499h12.295c0.57322 0.57209 1.3492 0.89469 2.159 0.89762 1.6968 1.1e-4 3.0723-1.3754 3.0722-3.0722 1.1e-4 -1.6968-1.3754-3.0723-3.0722-3.0722-0.81363 4.8e-5 -1.5945 0.32287-2.1704 0.89762h-12.283v-7.753h12.295c0.57321 0.5721 1.3492 0.8947 2.159 0.89762 1.6968 1.1e-4 3.0723-1.3759 3.0722-3.0727 1.1e-4 -1.6968-1.3754-3.0723-3.0722-3.0722-0.81363 5e-5 -1.594 0.32287-2.1699 0.89762h-12.284v-7.7499h12.295c0.57321 0.5721 1.3492 0.8947 2.159 0.89762 1.6968 1.1e-4 3.0723-1.3754 3.0722-3.0722 1.1e-4 -1.6968-1.3754-3.0723-3.0722-3.0722-0.81363 5e-5 -1.594 0.32287-2.1699 0.89762h-12.284v-19.396c0-0.15199-0.01517-0.30015-0.01913-0.45114h12.303c0.5759 0.57475 1.3563 0.89757 2.1699 0.89762 1.6968 1e-4 3.0723-1.3759 3.0722-3.0727 1e-4 -1.6968-1.3754-3.0723-3.0722-3.0722-0.8098 0.00293-1.5858 0.32553-2.159 0.89762h-12.997c-1.6432-5.5691-6.0616-9.9213-11.677-11.465v-14.176c0.57208-0.57321 0.89469-1.3487 0.89762-2.1585 1.1e-4 -1.6968-1.3754-3.0728-3.0722-3.0727-1.6968-1.105e-4 -3.0723 1.3759-3.0722 3.0727 5e-5 0.81363 0.32287 1.594 0.89762 2.1699v13.551c-0.0542-5.05e-4 -0.10644-0.008785-0.16071-0.008785h-7.5892v-13.553c0.57209-0.57322 0.89469-1.3492 0.89762-2.159 1.1e-4 -1.6968-1.3754-3.0723-3.0722-3.0722-1.6968-1.105e-4 -3.0723 1.3754-3.0722 3.0722 5e-5 0.81363 0.32287 1.594 0.89762 2.1699v13.542h-7.7499v-13.553c0.57209-0.57322 0.89469-1.3487 0.89762-2.1585 1.1e-4 -1.6968-1.3754-3.0728-3.0722-3.0727-1.6968-1.105e-4 -3.0723 1.3759-3.0722 3.0727 4.8e-5 0.81363 0.32287 1.594 0.89762 2.1699v13.542l-7.7411-5.17e-4v-13.565c0.5721-0.57321 0.8947-1.3492 0.89762-2.159 1.1e-4 -1.6968-1.3759-3.0723-3.0727-3.0722-1.6968-1.1e-4 -3.0723 1.3754-3.0722 3.0722 5e-5 0.81363 0.32287 1.594 0.89762 2.1699v13.554l-7.7499-5.16e-4v-13.565c0.5721-0.57321 0.8947-1.3492 0.89762-2.159 1.1e-4 -1.6968-1.3754-3.0723-3.0722-3.0722l-0.00155-5.168e-4z" fill="#fff"/><path d="m54.142 1.28c-7.7785-0.10611-12.693 4.0778-12.693 4.0778s-4.8045 3.244-6.8197 5.6885c-2.0152 2.4446-3.9998 3.3161-3.9998 3.3161l-10.92 4.4292s-4.3039 2.004-4.6829 6.8874c-0.37903 4.8834 8.6052 6.8151 8.6052 6.8151l10.779 1.2867c-3.797 2.1848-6.349 6.2714-6.349 10.984v74.649c0 7.0224 5.6533 12.676 12.676 12.676h74.649c7.0224 0 12.676-5.6533 12.676-12.676v-28.141c19.08-22.042 22.782-33.839 22.782-33.839s2.3205-7.1538 4.8922-15.174c2.5717-8.0199-3.6974-6.8585-3.6974-6.8585l-24.252 6.7293c-1.207-5.7485-6.2825-10.041-12.4-10.041h-33.177c-1.9266-19.83-13.78-25.894-13.78-25.894-5.3521-3.6273-10.213-4.8599-14.287-4.9155z" fill="#121e2c"/><path d="m40.27 37.282c-3.9647 0-7.1567 3.1915-7.1567 7.1562v40.219c0.96019-8.4807 4.4328-18.052 9.6733-24.824 9.8714-12.755 9.3931-19.262 5.7521-22.552zm42.644 0c0.24496 10.488-4.3418 20.083-4.3418 20.083l44.46-13.835c-0.44487-3.5314-3.4372-6.2477-7.0931-6.2477zm-49.801 61.069v21.844c0 3.9647 3.192 7.1562 7.1567 7.1562h18.112c-8.3075-3.693-21.415-12.054-25.268-29z" fill="#29befe"/><path d="m149.79 41.432-69.703 20.837s-18.894 12.226-6.2239 35.914c0.31428-4e-3 39.979 0.0384 39.979 0.0384s5.3864-3.9688 9.3648-9.8406l-40.695-0.25269s-2.0754 0.0793-2.0075-2.3201c0.068-2.3994 1.2177-2.4825 1.2177-2.4825l44.832 0.25605s3.3352-2.6554 8.4851-11.307l-46.34-0.0399s-1.8324-0.34051-1.7768-2.6268c0.0556-2.2863 2.6305-2.585 2.6305-2.585l45.957-0.17048s2.2148 0.37311 4.94-2.6224c2.7252-2.9954 9.801-21.321 9.801-21.321s0.63122-1.6448-0.46214-1.4781zm-72.26 60.929 33.354-0.22045s-4.43 6.7245-14.346 7.0264c-14.503 0.44144-19.008-6.8059-19.008-6.8059zm-39.296-87.393 7.3033 15.24s22.892 2.1374 4.4586 29.071c-18.433 26.934-7.9015 44.329-7.9015 44.329s10.309 21.075 36.028 23.294l35.722 0.45927s7.6669 5e-3 8.9801-7.2795l-0.0255-22.663s-10.703 16.455-23.723 17.408c-9.6849 0.70923-14.934-1.1038-17.672-2.5611-2.2513-1.1981-30.046-14.686-11.338-50.201 16.735-31.77-0.73572-47.166-0.73572-47.166l-13.986 3.0599s0.67535 2.9676-1.8951 4.436c-1.9916 1.1377-5.4854 0.11131-6.6183-1.8831-1.1522-2.0285-0.22903-5.5118 1.8024-6.7625 2.7445-1.6898 5.1812-0.15486 5.1812-0.15486l12.185-2.4294s-15.541-10.99-27.765 3.8033zm2.126 14.889s-16.877-2.0953-19.634-2.9542c-2.7568-0.85892-0.37994-2.5393-0.37994-2.5393s10.175-2.8442 14.302-6.5923z" fill="#fff"/></g></svg>
